# xmcd
#
# Track frame offsets:
# 150
# 22909
# 33968
# 45318
# 61490
# 80677
# 91396
# 107445
# 117514
# 130253
# 142143
# 152493
# 180505
# 198122
# 218796
# 233211
# 247991
# 259331
# 276076
# 287331
#
# Disc length: 4015 seconds
#
#
# Revision: 0
# Processed by: cddbd v1.5.2PL0 Copyright (c) Steve Scherf et al.
# Submitted via: FreeRIP 2.945 
#
DISCID=100fad14
DTITLE=gildo de freitas - as vinte mais
DYEAR=1900
DGENRE=sretaneja antiga
TTITLE0=figueira amiga
TTITLE1=ja dormi no cemiterio
TTITLE2=saudades dos pagos
TTITLE3=sem voce nao sou feliz
TTITLE4=resposta do facao tres listras
TTITLE5=baile do chico torto
TTITLE6=saudade de alegrete
TTITLE7=conhecendo o brasil
TTITLE8=prova de amor
TTITLE9=estrada da vida
TTITLE10=tranca de china
TTITLE11=eu reconheco que sou um grosso
TTITLE12=lembranca do passado
TTITLE13=nos todos somos iguais
TTITLE14=venha comigo mariquinha
TTITLE15=carta pra mae
TTITLE16=percorrendo o rio grande
TTITLE17=campereada de amor
TTITLE18=briga no carreiramento
TTITLE19=acordeona
EXTD=
EXTT0=
EXTT1=
EXTT2=
EXTT3=
EXTT4=
EXTT5=
EXTT6=
EXTT7=
EXTT8=
EXTT9=
EXTT10=
EXTT11=
EXTT12=
EXTT13=
EXTT14=
EXTT15=
EXTT16=
EXTT17=
EXTT18=
EXTT19=
PLAYORDER=
